<?xml version="1.0" encoding="UTF-8"?>
<svg id="Layer_1" xmlns="http://www.w3.org/2000/svg" version="1.1" xmlns:xlink="http://www.w3.org/1999/xlink" viewBox="0 0 360 70">
  <!-- Generator: Adobe Illustrator 29.8.4, SVG Export Plug-In . SVG Version: 2.1.1 Build 6)  -->
  <defs>
    <style>
      .st0, .st1 {
        fill: #063f6b;
      }

      .st2 {
        fill: none;
      }

      .st1 {
        fill-rule: evenodd;
      }

      .st3 {
        clip-path: url(#clippath);
      }
    </style>
    <clipPath id="clippath">
      <rect class="st2" x=".86" width="359.09" height="70"/>
    </clipPath>
  </defs>
  <g class="st3">
    <g>
      <path class="st0" d="M154.26,45.59c-1.67,0-3.35-.36-4.91-.96l-.84,1.08h-1.08l-.36-7.3h.96c1.91,4.67,3.59,6.1,6.34,6.1,2.03.12,3.83-1.32,4.07-3.47v-.48c0-2.03-.96-3.23-4.07-4.55-1.08-.48-2.03-.84-2.99-1.32-2.39-1.2-3.71-2.75-3.71-5.27,0-3.35,2.63-5.98,5.98-5.98h.36c1.32,0,2.63.36,3.83.96l.96-1.08h1.08l.6,6.34-1.08.12c-1.79-3.95-3.23-5.26-5.5-5.26-1.79,0-3.23,1.32-3.23,3.11v.36c0,1.91.96,3.11,3.23,4.07,1.2.48,2.27.96,3.47,1.56,2.75,1.32,3.95,2.87,3.95,5.5,0,4.31-3.83,6.46-7.06,6.46h0Z"/>
      <path class="st0" d="M171.61,45.59c-4.67,0-7.3-3.47-7.3-8.02-.24-4.19,2.99-7.78,7.3-8.02h.48c4.67,0,7.18,3.35,7.18,7.9,0,4.31-2.87,8.14-7.66,8.14h0ZM171.73,30.87c-2.27,0-4.07,2.03-4.07,6.82s2.03,6.7,4.31,6.7,4.07-2.03,4.07-6.82-1.79-6.7-4.31-6.7Z"/>
      <path class="st0" d="M198.29,43.68v.72l-4.79,1.2-.36-.24.24-2.51h-.36c-2.03,1.79-3.47,2.75-5.38,2.75-2.87,0-4.19-2.15-4.19-4.67v-8.5l-2.27-1.08v-.6l4.91-1.2.24.24v9.81c0,2.51.96,3.71,2.87,3.71,1.44-.12,2.75-.6,3.95-1.56v-9.45l-2.39-1.08v-.6l4.91-1.2.24.24v13.04l2.39.96v.02h-.01Z"/>
      <path class="st0" d="M205.71,45.35c-2.15,0-3.35-1.32-3.35-3.95v-9.57h-2.51v-.96l2.75-1.32,1.56-3.95h1.08v4.31h5.02v1.91h-5.02v8.5c0,1.2.12,1.91.84,2.39.72.36,1.44.48,2.15.36.72,0,1.44,0,2.15-.12v.72c-1.44,1.08-3.11,1.56-4.67,1.68h0Z"/>
      <path class="st0" d="M220.91,31.83c-1.56,0-2.99.6-4.19,1.56v10.17l2.27.6v.96h-7.54v-.96l2.39-.6v-19.86l-2.63-1.08v-.84l5.15-1.32.36.24v11.61l.12.12c1.44-1.56,3.47-2.51,5.62-2.75,2.87,0,4.31,1.91,4.31,4.67v9.33l2.39.6v.96h-7.42v-.96l2.27-.6v-8.14c-.12-2.51-1.08-3.71-3.11-3.71h.01Z"/>
      <path class="st0" d="M256.81,43.79c-2.15,1.2-4.55,1.79-6.94,1.79-6.7,0-11.37-4.31-11.37-11.01-.12-6.1,4.67-11.13,10.77-11.25h.36c1.79,0,3.47.36,5.15,1.08l1.08-1.2h.96l.24,7.06-.96.12c-1.91-3.71-3.95-5.74-6.94-5.74-3.95,0-6.82,3.71-6.82,9.57,0,6.58,3.59,9.81,8.38,9.81.96,0,1.79-.12,2.63-.48l3.59-4.43.72.24-.84,4.43h-.01Z"/>
      <path class="st0" d="M272.12,42.6c0,.96.6,1.44,2.75,1.32l.12.6c-1.08.6-2.27.96-3.47.96-1.32,0-1.91-.6-2.03-2.39h-.36c-1.2,1.44-2.87,2.27-4.79,2.51-1.8.12-3.47-1.2-3.71-2.99v-.36c0-3.11,3.59-5.03,8.62-5.38v-1.79c0-2.63-1.08-3.47-3.35-3.47-.84,0-1.67.24-2.51.6.72.36,1.08,1.08,1.2,1.79,0,.96-.84,1.79-1.79,1.79s-1.8-.84-1.8-1.79c0-2.27,3.47-3.95,6.7-3.95,2.87,0,4.19,1.44,4.19,4.43l.24,8.14v-.02h-.01ZM269.37,37.69c-4.07.12-5.86,1.44-5.86,3.35-.12,1.2.72,2.27,1.92,2.39h.48c1.32-.12,2.51-.6,3.59-1.44l-.12-4.31h-.01Z"/>
      <path class="st0" d="M286.6,33.86c-.96,0-1.79-.72-1.79-1.68v-.48c-1.08-.12-2.39,1.08-3.23,2.51v9.21l2.51.6v.96h-7.66v-.96l2.39-.6v-10.89l-2.27-1.08v-.72l4.79-1.2.36.24-.24,2.87.36.12c1.32-2.15,2.63-3.23,4.31-3.23,1.2-.12,2.27.84,2.39,2.03v.12c-.12,1.08-.84,2.03-1.92,2.15v.03Z"/>
      <path class="st0" d="M297.13,45.59c-4.67,0-7.3-3.47-7.3-8.02-.24-4.19,2.99-7.78,7.18-8.02h.6c4.67,0,7.18,3.35,7.18,7.9,0,4.31-2.87,8.14-7.66,8.14ZM297.13,30.87c-2.27,0-4.07,2.03-4.07,6.82s2.03,6.7,4.31,6.7,4.07-2.03,4.07-6.82-1.8-6.7-4.31-6.7Z"/>
      <path class="st0" d="M313.77,44.15v.96h-7.42v-.96l2.39-.6v-19.86l-2.63-1.08v-.84l5.15-1.32.36.24v22.85l2.15.6h0Z"/>
      <path class="st0" d="M316.88,31.59v-.72l5.03-1.2.12.12v13.88l2.27.6v.96h-7.42v-.96l2.39-.6v-10.89l-2.39-1.2h0ZM320.58,21.54c1.08,0,2.03.84,2.03,1.91v.12c0,1.2-.96,2.27-2.27,2.27-1.08,0-2.04-.84-2.04-1.91v-.12c.12-1.32,1.08-2.27,2.27-2.27h.01Z"/>
      <path class="st0" d="M341.17,43.56l2.39.6v.96h-7.42v-.96l2.27-.6v-8.14c0-2.39-.96-3.71-2.99-3.71-1.44.12-2.75.6-3.83,1.56v10.17l2.27.6v.96h-7.54v-.96l2.39-.6v-10.89l-2.39-1.08v-.72l4.79-1.2.36.24-.24,2.51.36.12c2.03-1.91,3.59-2.75,5.38-2.75,2.75,0,4.19,1.79,4.19,4.67v9.21h.01Z"/>
      <path class="st0" d="M357.08,42.6c0,.96.6,1.44,2.75,1.32l.12.6c-1.08.6-2.27.96-3.47.96-1.32,0-1.91-.6-2.03-2.39h-.36c-1.2,1.44-2.87,2.27-4.79,2.51-1.8.12-3.47-1.2-3.59-2.99v-.48c0-3.11,3.59-5.03,8.61-5.38v-1.79c0-2.63-1.08-3.47-3.35-3.47-.84,0-1.67.24-2.51.6.72.36,1.08,1.08,1.2,1.79,0,.96-.84,1.79-1.79,1.79s-1.8-.84-1.8-1.79c0-2.27,3.59-3.95,6.7-3.95,2.87,0,4.19,1.44,4.19,4.43l.12,8.26s0-.02,0-.02ZM354.33,37.69c-4.07.12-5.86,1.44-5.86,3.35-.12,1.2.72,2.27,1.92,2.39h.48c1.32-.12,2.51-.6,3.59-1.44l-.12-4.31h-.01Z"/>
      <path class="st1" d="M82.38,1.65c-2.01,4.27-3.25,9.58-3.67,15.65-.11,1.56-.11,5.82,0,7.36.5,7.13,1.89,13.01,4.62,19.41.66,1.56,2.1,4.45,2.92,5.89,4.74,8.26,11.23,14.76,19.27,19.31.47.27.33.32,2.04-.71,6.52-3.92,11.91-9.08,16.11-15.42,4.46-6.73,7.56-14.63,8.84-22.52.85-5.29,1-11.13.4-16.2-.56-4.75-1.74-9.18-3.39-12.68l-.34-.73-.66.33c-1.88.94-4.7,2.11-6.72,2.8-4.77,1.6-9.15,2.38-14.28,2.55-6.6.22-12.64-.76-18.78-3.05-1.52-.56-4.14-1.7-5.47-2.37-.29-.15-.54-.26-.55-.26s-.16.29-.33.65h-.01ZM20.64,20.45l-18.64.03v29.72l18.64.03.03,18.58h29.59v-18.61h18.61v-29.72h-18.61V1.87h-29.59s-.03,18.58-.03,18.58ZM86.98,8.63c2.69.89,5.37,1.58,7.84,2.04,6.37,1.17,12.19,1.38,18.14.64,4.27-.53,8.03-1.38,12.23-2.77.51-.17.95-.3.99-.3.09,0,.25.39.66,1.58,2.11,6.2,2.28,14.03.47,22.04-1.45,6.46-4.46,13.62-7.91,18.86-3.31,5.03-7.26,9.01-12.22,12.32l-1.22.82-.38-.24c-4.8-3.06-8.86-6.89-12.07-11.4-2.85-4.01-5.12-8.49-7.07-13.99-1.57-4.42-2.49-8.51-2.94-13.09-.15-1.52-.17-6.2-.03-7.6.22-2.25.62-4.5,1.15-6.34.43-1.51.97-2.97,1.09-2.97.04,0,.62.18,1.28.4,0,0-.01,0-.01,0ZM87.27,12.27c-.81,2.6-1.18,5.12-1.24,8.38-.09,4.39.49,8.85,1.76,13.62,2.69,10.12,8.69,19.67,15.9,25.28.79.62,2.16,1.57,2.25,1.57.08,0,1.54-1.01,2.24-1.56,5.21-4.07,9.94-10.36,13.08-17.37,2.51-5.6,4.06-11.74,4.51-17.89.09-1.27.09-4.48,0-5.62-.2-2.4-.59-4.56-1.17-6.33l-.24-.74-1.95.49c-3.28.82-5.81,1.3-8.8,1.66-5.74.69-9.71.69-15.36,0-3.3-.4-5.86-.9-9.62-1.86l-1.15-.3-.21.68h0ZM105.78,17.03c.56.28,1.25.57,1.55.64,1.09.29,1.08.27,1.05,2.08-.02,1.59-.02,1.6.56,1.26.21-.12.74-.53,1.2-.9,1.14-.92,1.51-1.14,1.94-1.13.47,0,1,.3,1.29.73.18.26.22.38.22.66,0,.56-.17.76-1.65,2.02-2.66,2.25-3.06,2.64-3.4,3.32-.07.13-.12.24-.13.25s-.16-.01-.33-.05c-.18-.04-.95-.15-1.73-.24-.78-.09-1.65-.2-1.93-.24l-.52-.08v-.53c-.02-.29-.03-.61-.03-.71,0-.17.02-.19.35-.23.98-.12,1.6-.73,1.25-1.24-.05-.08-.28-.22-.51-.32s-.4-.2-.39-.21c.1-.1,1.84.42,2.82.85.33.14.62.26.65.26.12,0-.12-.5-.35-.7-.29-.26-.66-.36-2.25-.6-.85-.13-.95-.16-.73-.19.15-.02.5-.05.77-.05.52,0,1.07-.12,1.29-.29.18-.13.1-.35-.3-.86-.19-.24-.49-.64-.67-.9-.43-.63-.85-.99-1.55-1.32l-.59-.28v-.4c0-.83.2-1.1.79-1.1.23,0,.5.1,1.31.5,0,0,.02,0,.02,0ZM38.21,17.16c5.8.91,10.65,4.31,13.47,9.44.24.44.46.86.49.92.04.11-.31.12-6.71.12-7.22,0-7.28,0-7.93-.33-.43-.22-.9-.7-1.07-1.08-.11-.26-.15-.47-.15-.92,0-.81.14-1.16.82-2.05.14-.19.32-.47.39-.64.51-1.16-.09-2.64-1.23-3.07-.33-.12-.49-.14-.93-.12-.89.05-1.51.47-1.9,1.32-.15.32-.18.47-.17.98,0,.72.07.89.63,1.66s.69,1.1.73,1.8c.04.74-.09,1.14-.5,1.59-.35.39-.93.69-1.53.8-.44.08-13.83.11-13.83.03,0-.02.18-.39.41-.82,1.92-3.66,5.1-6.61,8.91-8.26,1.78-.77,3.46-1.21,5.68-1.47.6-.07,3.74.02,4.42.12v-.02ZM102.58,18.5c.65.14,1.35.36,1.71.54.33.17.56.39,1.03,1.02.17.23.4.48.51.55.25.18.32.38.18.53-.1.1-.36.11-2.07.13-1.08,0-2,.03-2.06.05-.07.03-.03.09.17.21.55.34,1.35.72,1.8.84,1.14.32,1.35.66.56.89-.92.26-1.83.19-2.87-.24-.83-.34-1.03-.37-1.31-.19-.46.28-.53,1-.17,1.72.27.56.81.91,1.97,1.28.99.32,1.68.43,3.98.69,2.85.31,4.44.81,5.67,1.79.88.7,1.43,1.49,1.6,2.32.12.57.11,1.65-.03,2.16-.38,1.46-1.52,2.54-3.3,3.14-.44.15-1.44.38-1.47.34,0,0,.07-1.64.15-2.96.04-.65.04-.67.23-.78.28-.16.42-.48.39-.87-.07-.78-.78-1.02-4.03-1.36-4.26-.45-6.39-1.15-7.92-2.61-1.2-1.14-1.75-2.38-1.75-3.95,0-3.21,2.46-5.48,5.79-5.36.44.02,1.01.07,1.27.13h-.03ZM101.94,19.3c.05.06.15.11.22.11.21,0,.38.12.56.4.14.22.2.26.39.26.12,0,.32-.07.46-.16.13-.09.31-.17.4-.19.15-.03.13-.04-.14-.17-.37-.17-.74-.26-1.44-.32-.49-.04-.52-.04-.44.06h0ZM40.15,20.64c.15.37.17.5.17,1.18s-.03.85-.19,1.31c-.21.6-.42,1-.75,1.42-.26.33-.28.47-.07.52.08.02,1.95.03,4.15.02l4-.02-.66-.67c-.84-.86-1.6-1.49-2.57-2.14-.89-.6-2.62-1.46-3.58-1.79l-.68-.23.17.41h.01ZM30.22,20.5c-2.36.86-4.57,2.3-6.17,4.02l-.5.54,4.06.02c3.96.02,4.25,0,4.25-.18,0-.02-.12-.21-.28-.41-.38-.5-.7-1.19-.83-1.79-.14-.64-.1-1.57.09-2.07.09-.23.11-.35.06-.35-.04,0-.35.1-.68.22ZM24.59,29.48c3.28.31,6.12.6,6.33.64,1.09.23,1.78.99,1.95,2.13.09.6-.02,1.25-.31,1.86-.2.42-7.64,14.43-8.18,15.4l-.23.42-.58-.5c-1.23-1.05-2.43-2.39-3.31-3.7-2.85-4.22-3.82-9.25-2.75-14.29.14-.64.64-2.38.74-2.54.01-.02.11-.03.21-.02.1.01,2.87.28,6.14.59h0ZM53.11,30.03c.3,1,.6,2.5.71,3.53.1,1.03.05,3.66-.1,4.56-.53,3.26-1.73,6.06-3.69,8.6-.97,1.26-3.08,3.29-3.24,3.12-.03-.03-1.96-3.63-4.28-8-3.08-5.78-4.25-8.06-4.33-8.37-.14-.56-.1-1.35.11-1.9.28-.74,1.03-1.31,1.9-1.46.22-.04,3.13-.33,6.46-.65l6.06-.58.08.18c.05.1.19.54.32.97ZM105.96,31.33c.39.04.94.13,1.22.2l.52.14v.55c0,.83-.13,4.54-.15,4.57-.01,0-.43-.05-.92-.14-.5-.09-1.16-.19-1.47-.24l-.57-.08-.08-.41c-.15-.76-.48-1.61-.98-2.57-.3-.58-.5-1.03-.5-1.15,0-.23.17-.37.62-.51.26-.08.29-.1.28-.3v-.22l.67.04c.37.02,1,.07,1.38.11h-.02,0ZM20.05,32.1c-.32,1.42-.43,3.59-.25,5.08.34,2.87,1.54,5.76,3.3,7.99.27.34.35.41.41.33.19-.21,6.53-12.45,6.53-12.6,0-.13-.05-.2-.22-.27-.15-.07-1.6-.23-4.6-.5-2.41-.22-4.54-.42-4.73-.44l-.34-.04-.1.46h0ZM48.59,31.86c-1.09.1-3.16.3-4.62.43-1.45.14-2.72.28-2.81.32-.25.11.78,2.37,3.08,6.76,1.79,3.41,3.26,6.21,3.28,6.21.06,0,.66-.78,1.1-1.44,1.32-1.97,2.15-4.17,2.52-6.63.13-.9.12-3.63-.03-4.49-.21-1.24-.25-1.37-.41-1.36-.08,0-1.03.09-2.11.2ZM102.88,34.22c.33.68.85,2,.79,2.02-.39.12-.54.41-.38.71.12.22.41.31,1.54.46,4.24.58,5.5,1.04,6.35,2.32.69,1.03.78,2,.3,3.1-.36.81-1.49,1.64-2.57,1.91-.78.19-.72.32-.68-1.28l.03-1.38.26-.25c.17-.16.26-.31.26-.42,0-.21-.28-.56-.5-.61-.09-.02-1.23-.19-2.53-.38-1.3-.19-2.61-.4-2.9-.47-1.65-.41-2.87-1.46-3.21-2.78-.14-.53-.13-1.39,0-1.81.15-.43.72-1.01,1.3-1.3.46-.23,1.4-.65,1.48-.66.03,0,.23.36.45.82h0ZM36.06,36.81c.14.07.33.21.43.32.16.17,9.16,13.57,9.16,13.64,0,.05-1.27.78-2.04,1.16-5.51,2.74-12.3,2.46-17.61-.74-.33-.2-.6-.4-.6-.45.01-.14,8.98-13.53,9.19-13.7.42-.36,1.02-.45,1.47-.22h0ZM32.23,45.06l-3.12,4.77.28.12c.16.07.62.24,1.02.38,3.5,1.2,7.34,1.12,10.82-.23l.64-.25-.55-.84c-3.59-5.5-5.43-8.31-5.57-8.49-.09-.12-.22-.22-.29-.22-.09,0-.97,1.29-3.24,4.77h0ZM106.34,41.35c.56.06,1.04.14,1.06.16.06.06-.05,4.61-.11,4.61-.03,0-.52-.24-1.09-.54l-1.03-.54-.04-.48c-.02-.27-.07-1.01-.11-1.65-.04-.64-.08-1.28-.1-1.42-.03-.24-.02-.25.18-.25.12,0,.67.06,1.23.12h0ZM104.09,42.39s.04.53.09,1.15l.09,1.14-.16.19c-.09.11-.16.23-.16.29,0,.22.4.49,1.27.86,1.33.56,2.84,1.32,3.45,1.72,1.01.67,1.46,1.28,1.55,2.11.12,1.16-.52,2.21-1.68,2.74-.27.13-.53.23-.58.23-.11,0-.04-1.98.07-2.09.25-.25-.08-.67-1.04-1.3-.68-.44-.96-.57-2.36-1.06-1.26-.44-1.63-.61-2.11-.98-.71-.54-1.07-1.33-1.02-2.2.06-1.04.48-1.74,1.35-2.27.46-.28,1.24-.61,1.25-.53h0ZM105.76,49.54c.54.21,1.27.69,1.44.96.08.12.08.62,0,3.25-.05,1.71-.09,3.23-.1,3.37,0,.19-.05.31-.2.45-.18.18-.24.2-.65.2-.53,0-.71-.09-.81-.42-.04-.12-.1-1.44-.14-2.93s-.09-3.25-.11-3.9c-.02-.65-.02-1.19,0-1.19s.28.09.58.21h-.01ZM104.59,52.98l.05,1.1-.17.21c-.22.27-.34.69-.28,1.07.12.86.12,1.01,0,1.14-.16.18-.24.17-.45-.05-.44-.46-.78-1.65-.69-2.45.04-.44.28-1.01.55-1.33.18-.22.83-.78.91-.78.02,0,.06.5.09,1.1h-.01Z"/>
      <path class="st0" d="M62.09,68.81c-.67,0-1.29-.16-1.85-.49-.55-.33-.99-.76-1.32-1.32-.33-.55-.49-1.16-.49-1.84s.16-1.28.49-1.84c.33-.55.76-.99,1.32-1.32.56-.34,1.18-.5,1.85-.5s1.28.17,1.84.5c.55.33.99.76,1.32,1.32.33.55.49,1.16.49,1.84s-.16,1.28-.49,1.84c-.33.55-.76.99-1.32,1.32s-1.16.49-1.84.49ZM62.09,68.18c.58,0,1.1-.12,1.54-.37.45-.24.8-.59,1.06-1.04.25-.46.38-.99.38-1.61s-.13-1.14-.38-1.59c-.26-.46-.61-.81-1.06-1.06-.45-.26-.96-.38-1.54-.38s-1.11.13-1.56.38c-.45.24-.8.6-1.06,1.06-.25.45-.38.98-.38,1.59s.13,1.15.38,1.61c.25.45.61.8,1.06,1.04s.97.37,1.56.37ZM63.4,66.91s0,.04-.02.06c0,.02-.03.03-.05.03h-.46s-.06-.02-.08-.06l-.6-1.59s-.02-.04-.02-.05-.03-.02-.09-.02h-.76s-.06.02-.06.06v1.58c0,.05-.03.08-.08.08h-.41s-.06-.02-.06-.06v-3.5s0-.06.03-.06h1.56c.38,0,.67.08.87.23.21.15.32.38.32.67s-.08.51-.24.66c-.15.14-.32.24-.49.29-.03,0-.04.02-.02.05l.64,1.64h.02ZM62.21,64.82c.19,0,.36-.03.5-.09.14-.07.21-.2.21-.38,0-.13-.05-.24-.15-.34-.1-.1-.3-.15-.6-.15h-.89s-.02,0-.02.06v.86s.02.05.05.05h.9Z"/>
      <path class="st0" d="M127.29,68.81c-.67,0-1.29-.16-1.85-.49-.55-.33-.99-.76-1.32-1.32-.33-.55-.49-1.16-.49-1.84s.16-1.28.49-1.84c.33-.55.76-.99,1.32-1.32.56-.34,1.18-.5,1.85-.5s1.28.17,1.83.5c.55.33.99.76,1.32,1.32.33.55.49,1.16.49,1.84s-.16,1.28-.49,1.84c-.33.55-.76.99-1.32,1.32-.55.33-1.16.49-1.83.49ZM127.29,68.18c.58,0,1.1-.12,1.54-.37.45-.24.8-.59,1.06-1.04.26-.46.38-.99.38-1.61s-.13-1.14-.38-1.59c-.25-.46-.61-.81-1.06-1.06-.45-.26-.96-.38-1.54-.38s-1.11.13-1.56.38c-.45.24-.8.6-1.06,1.06-.25.45-.38.98-.38,1.59s.13,1.15.38,1.61c.26.45.61.8,1.06,1.04s.97.37,1.56.37ZM128.6,66.91v.06s-.03.03-.05.03h-.46s-.06-.02-.08-.06l-.6-1.59s-.01-.04-.01-.05-.03-.02-.09-.02h-.76s-.06.02-.06.06v1.58c0,.05-.03.08-.08.08h-.41s-.06-.02-.06-.06v-3.5s0-.06.03-.06h1.56c.38,0,.67.08.87.23.21.15.32.38.32.67s-.08.51-.24.66c-.15.14-.32.24-.49.29-.03,0-.04.02-.01.05l.64,1.64h-.02ZM127.41,64.82c.19,0,.36-.03.51-.09.14-.07.21-.2.21-.38,0-.13-.05-.24-.15-.34s-.3-.15-.6-.15h-.89s-.01,0-.01.06v.86s.01.05.05.05h.89-.01Z"/>
    </g>
  </g>
</svg>