<svg xmlns="http://www.w3.org/2000/svg" id="Layer_2" viewBox="0 0 398.85 63.41"><defs><style>.cls-1{fill:#003220;}.cls-2{fill:#00c389;}</style></defs><g id="_Layer_"><g id="Layer_1-2"><path class="cls-1" d="M111.15,38.32v-10.74c0-4.18-2.68-6.55-6.16-6.55-3.12,0-5.32,1.62-6.55,4.84-.7-3.12-3.07-4.84-5.9-4.84s-5.1,1.45-6.48,4.4l-.17-.27,.09-4.09c-1.28,.22-3.7,.36-7.35,.48v2.42c1.5,.12,2.37,.22,2.68,.31,.27,.09,.39,.31,.39,.7v13.34c0,.53-.14,.84-.36,.92-.27,.14-1.11,.22-2.56,.36v2.15h10.3v-2.15c-1.45-.12-2.29-.22-2.51-.36-.27-.09-.39-.39-.39-.92v-11.7c.92-1.19,2.78-1.89,4.35-1.89,2.42,0,3.6,1.33,3.6,3.92v13.12h7.4v-2.15c-1.45-.12-2.29-.22-2.51-.36-.27-.09-.39-.39-.39-.92v-10.47c0-.39,0-.7-.05-.92,1.09-1.45,2.56-2.2,4.35-2.2,2.47,0,3.7,1.33,3.7,3.92v13.12h7.4v-2.15c-1.45-.12-2.29-.22-2.51-.36-.27-.09-.39-.39-.39-.92"></path><path class="cls-1" d="M124.71,39.31c-3.43,0-5.15-2.56-5.15-7.61s1.84-7.66,5.15-7.66,5.1,2.56,5.1,7.61-1.72,7.66-5.1,7.66m-.09-18.27c-2.81,0-5.15,1.01-6.99,3-1.89,1.98-2.81,4.54-2.81,7.66s.92,5.8,2.73,7.71c1.81,1.93,4.23,2.9,7.22,2.9,2.81,0,5.15-1.01,7.04-3,1.84-1.98,2.78-4.54,2.78-7.66s-.92-5.8-2.73-7.74c-1.81-1.89-4.23-2.86-7.22-2.86"></path><path class="cls-1" d="M156.24,38.32v-10.88c0-1.98-.61-3.56-1.89-4.71-1.28-1.14-2.81-1.72-4.57-1.72-3,0-5.24,1.45-6.77,4.4l-.22-.27,.09-4.09c-1.28,.22-3.7,.36-7.35,.48v2.42c1.5,.12,2.37,.22,2.68,.31,.27,.09,.39,.31,.39,.7v13.34c0,.53-.12,.84-.36,.92-.27,.14-1.09,.22-2.56,.36v2.15h10.3v-2.15c-1.45-.12-2.29-.22-2.51-.36-.27-.09-.39-.39-.39-.92v-11.53c1.19-1.36,2.73-2.08,4.57-2.08,2.73,0,4.09,1.33,4.09,4.01v13.03h7.4v-2.15c-1.45-.12-2.29-.22-2.51-.36-.27-.09-.39-.39-.39-.92"></path><path class="cls-1" d="M169.76,39.31c-3.43,0-5.15-2.56-5.15-7.61s1.84-7.66,5.15-7.66,5.1,2.56,5.1,7.61-1.72,7.66-5.1,7.66m-.08-18.27c-2.81,0-5.15,1.01-6.99,3-1.89,1.98-2.81,4.54-2.81,7.66s.92,5.8,2.73,7.71c1.81,1.93,4.23,2.9,7.22,2.9,2.81,0,5.15-1.01,7.04-3,1.84-1.98,2.78-4.54,2.78-7.66s-.92-5.8-2.73-7.74c-1.81-1.89-4.23-2.86-7.22-2.86"></path><path class="cls-1" d="M190.31,31.94c-2.47,0-3.82-1.5-3.82-4.09,0-1.36,.36-2.37,1.01-3.07,.66-.7,1.59-1.06,2.78-1.06s2.15,.36,2.81,1.06c.66,.75,.97,1.76,.97,3.07,0,2.59-1.4,4.09-3.74,4.09m-1.86,9.69h5.15c1.98,0,3,.7,3,2.15,0,1.98-2.37,3.26-6.38,3.26-3.6,0-5.41-.97-5.41-2.86,0-1.62,1.23-2.51,3.65-2.56m11.89-24.42h-4.84c-.05,1.62-.27,3.21-.58,4.71-1.33-.58-2.9-.87-4.76-.87-4.93,0-8.27,2.78-8.27,6.82,0,2.78,1.23,4.76,3.65,5.9-2.34,1.01-3.53,2.37-3.53,4.09s1.28,3,3.53,3.53c-2.68,.36-4.45,1.84-4.45,3.96,0,3.17,3.21,4.71,8.63,4.71,6.38,0,10.47-2.86,10.47-6.96,0-3.39-2.29-5.59-6.87-5.59h-5.27c-1.81,0-2.68-.58-2.68-1.67,0-.58,.27-1.14,.84-1.81,1.19,.44,2.59,.66,4.14,.66,4.93,0,8.32-2.73,8.32-6.82,0-2.42-.92-4.23-2.78-5.41,2.15-1.09,3.65-2.81,4.45-5.24"></path><path class="cls-1" d="M209.03,26.57l-.17-.22,.09-5.27c-1.28,.22-3.7,.36-7.35,.48v2.42c1.5,.12,2.37,.22,2.68,.31,.27,.09,.39,.31,.39,.7v13.34c0,.53-.12,.84-.36,.92-.27,.12-1.09,.22-2.56,.36v2.15h11.17v-2.15c-1.84-.12-2.95-.22-3.26-.36-.36-.09-.53-.39-.53-.92v-10.16c1.36-1.54,3.26-2.34,5.59-2.34,.36,0,.87,.05,1.58,.09v-4.71c-.44-.09-.84-.12-1.14-.12-2.64,0-4.45,1.98-6.16,5.51"></path><path class="cls-1" d="M229.99,36.79c-1.19,1.54-2.68,2.29-4.49,2.29s-2.73-1.01-2.73-2.73c0-1.81,.97-2.73,3.6-3.48l3.6-1.06v4.98h.02Zm5.82,1.98c-.87,0-1.33-.58-1.33-1.67v-9.77c0-4.09-2.51-6.16-7.47-6.16s-8.1,2.37-8.05,6.38l4.31,.58c0-2.9,1.19-4.35,3.53-4.35s3.21,1.06,3.21,3.34v2.25l-5.46,1.36c-4.53,1.19-6.43,2.81-6.43,5.95,0,3.39,2.08,5.63,5.54,5.63,3.03,0,5.2-1.5,6.48-4.45l.22,.31v.75c0,2.25,1.23,3.39,3.31,3.39,2.25,0,4.18-1.45,4.53-4.04l-.36-.39c-.58,.62-1.23,.92-2.03,.92"></path><path class="cls-1" d="M271.62,38.32v-10.74c0-4.18-2.68-6.55-6.16-6.55-3.12,0-5.32,1.62-6.55,4.84-.7-3.12-3.07-4.84-5.9-4.84s-5.1,1.45-6.46,4.4l-.17-.27,.09-4.09c-1.28,.22-3.7,.36-7.35,.48v2.42c1.5,.12,2.37,.22,2.68,.31,.27,.09,.39,.31,.39,.7v13.34c0,.53-.12,.84-.36,.92-.27,.14-1.09,.22-2.56,.36v2.15h10.3v-2.15c-1.45-.12-2.29-.22-2.51-.36-.27-.09-.39-.39-.39-.92v-11.7c.92-1.19,2.78-1.89,4.35-1.89,2.42,0,3.6,1.33,3.6,3.92v13.12h7.4v-2.15c-1.45-.12-2.29-.22-2.51-.36-.27-.09-.39-.39-.39-.92v-10.47c0-.39,0-.7-.05-.92,1.11-1.45,2.56-2.2,4.35-2.2,2.47,0,3.7,1.33,3.7,3.92v13.12h7.4v-2.15c-1.45-.12-2.29-.22-2.51-.36-.27-.09-.39-.39-.39-.92"></path><path class="cls-1" d="M304.89,38.32v-10.88c0-1.98-.62-3.56-1.89-4.71-1.28-1.14-2.78-1.72-4.54-1.72-2.9,0-5.15,1.4-6.73,4.28V12.89c-.92,.12-3.43,.31-7.57,.48v2.42c1.5,.12,2.37,.22,2.68,.31,.27,.09,.39,.31,.39,.7v21.52c0,.53-.14,.84-.36,.92-.27,.14-1.11,.22-2.56,.36v2.15h10.3v-2.15c-1.45-.12-2.29-.22-2.51-.36-.27-.09-.39-.39-.39-.92v-11.66c1.23-1.28,2.78-1.93,4.57-1.93,2.73,0,4.09,1.33,4.09,4.01v13.03h7.4v-2.15c-1.45-.12-2.29-.22-2.51-.36-.27-.09-.39-.39-.39-.92"></path><path class="cls-1" d="M313.34,29.52c.53-3.74,2.25-5.68,4.57-5.68,2.47,0,3.79,1.89,3.92,5.68h-8.49Zm4.7-8.49c-2.86,0-5.2,1.09-6.91,3.26-1.76,2.2-2.64,4.84-2.64,7.93s.92,5.54,2.73,7.35c1.81,1.81,4.23,2.73,7.26,2.73,4.23,0,6.99-2.2,7.88-5.76l-.39-.36c-1.45,1.86-3.57,2.78-6.29,2.78-4.28,0-6.43-2.25-6.51-6.69h13.42c.12-3.26-.53-5.95-2.03-8.05-1.54-2.11-3.7-3.17-6.51-3.17"></path><path class="cls-1" d="M340.67,36.79c-1.19,1.54-2.68,2.29-4.49,2.29s-2.73-1.01-2.73-2.73c0-1.81,.97-2.73,3.6-3.48l3.6-1.06v4.98h.02Zm5.82,1.98c-.87,0-1.33-.58-1.33-1.67v-9.77c0-4.09-2.51-6.16-7.47-6.16s-8.1,2.37-8.05,6.38l4.31,.58c0-2.9,1.19-4.35,3.53-4.35s3.21,1.06,3.21,3.34v2.25l-5.46,1.36c-4.53,1.19-6.43,2.81-6.43,5.95,0,3.39,2.08,5.63,5.54,5.63,3.03,0,5.2-1.5,6.48-4.45l.22,.31v.75c0,2.25,1.23,3.39,3.31,3.39,2.25,0,4.18-1.45,4.53-4.04l-.36-.39c-.58,.62-1.23,.92-2.03,.92"></path><path class="cls-1" d="M357.17,38.32V12.89c-.92,.12-3.43,.31-7.57,.48v2.42c1.5,.12,2.37,.22,2.68,.31,.27,.09,.39,.31,.39,.7v21.52c0,.53-.12,.84-.36,.92-.27,.14-1.09,.22-2.56,.36v2.15h10.3v-2.15c-1.45-.12-2.29-.22-2.51-.36-.27-.09-.39-.39-.39-.92"></path><path class="cls-1" d="M370.31,38.73c-1.81,0-2.68-.97-2.68-2.9v-11.44h6.34v-2.81h-6.34v-5.63h-3.57c-.39,2.51-.7,4.01-1.01,4.57-.31,.58-.97,.87-1.98,.97l-1.5,.09v2.81h3.56v11.92c0,3.74,1.84,5.85,5.24,5.85,3.21,0,5.24-1.62,6.12-4.84l-.44-.31c-.87,1.14-2.11,1.72-3.74,1.72"></path><path class="cls-1" d="M396.36,39.26c-.27-.09-.39-.39-.39-.92v-10.88c0-1.98-.61-3.57-1.89-4.71-1.28-1.14-2.78-1.72-4.53-1.72-2.9,0-5.15,1.4-6.74,4.28V12.9c-.92,.12-3.43,.31-7.57,.48v2.42c1.5,.14,2.37,.22,2.68,.31,.27,.09,.39,.31,.39,.7v21.52c0,.53-.12,.84-.36,.92-.27,.12-1.09,.22-2.56,.36v2.15h10.3v-2.15c-1.45-.12-2.29-.22-2.51-.36-.27-.09-.39-.39-.39-.92v-11.66c1.23-1.28,2.78-1.93,4.57-1.93,2.73,0,4.09,1.33,4.09,4.01v13.03h7.4v-2.15c-1.45-.12-2.29-.22-2.51-.36"></path><path class="cls-2" d="M31.71,0C14.2,0,0,14.2,0,31.71s14.2,31.71,31.71,31.71,31.71-14.2,31.71-31.71S49.21,0,31.71,0Zm7.01,42.21h-9.11v-1.64c1.61-.09,2.45-.23,2.61-.39,.09-.09,.12-.27,.12-.51v-14.7l-7.44,17.3h-.69l-7.32-16.79v13.12c0,.69,.16,1.17,.48,1.4s1.17,.42,2.51,.56v1.64H11.75v-1.64c1.34-.12,2.15-.33,2.45-.56,.3-.23,.45-.72,.45-1.4v-15.32c-.89-.23-1.79-.39-2.81-.53v-1.64h7.02l6.37,15.03,6.34-15.03h7.12v1.64c-1.61,.09-2.45,.23-2.61,.39-.09,.09-.12,.27-.12,.53v15.96c0,.36,.12,.56,.36,.62,.23,.09,1.05,.19,2.39,.3v1.64l.02,.02Zm12.94-19.43c-1.61,.09-2.48,.23-2.65,.39-.09,.09-.12,.3-.12,.53v15.96c0,.36,.12,.56,.39,.62,.23,.09,1.05,.19,2.39,.3v1.64h-9.11v-1.64c1.34-.09,2.15-.19,2.39-.3,.23-.06,.36-.27,.36-.62v-7.55h-7.29v-2.03h7.29v-6.4c0-.36-.12-.56-.36-.66-.23-.06-1.05-.16-2.39-.27v-1.64h9.11v1.65Z"></path></g></g></svg>