<svg role="img" aria-label="Oscar" width="400" height="100" viewBox="0 0 400 100" xmlns="http://www.w3.org/2000/svg" class="[&amp;_path]:fill-current h-6 w-auto"><path fill-rule="evenodd" clip-rule="evenodd" d="M131.889 41.0003C124.667 38.7337 116.061 35.817 116.061 28.367C116.061 22.667 122.339 18.7837 128.311 18.7837C134.278 18.7837 140.244 22.3392 141.183 29.667H157.517C156.378 10.3615 139.794 3.42812 128.933 3.42812C110.844 3.42812 99.7277 15.4115 99.7277 29.3392C99.7277 48.7726 116.811 52.7892 126.605 56.417C135.089 59.5281 143.25 62.2503 143.25 70.1503C143.25 77.7948 137.094 82.4559 129.75 82.4559C120.639 82.4559 114.361 76.3059 113.733 66.1337H97.0888C97.4054 90.7448 117.5 97.8726 129.122 97.8726C148.278 97.8726 159.578 85.4392 159.578 69.2448C159.522 48.1281 139.55 43.4615 131.889 41.0003ZM46.9777 3.42812C19.9721 3.42812 -0.00012207 25.4559 -0.00012207 50.067C-0.00012207 72.8726 17.711 97.8726 46.9777 97.8726C76.4943 97.8726 93.9554 72.4837 93.9554 50.4559C93.8888 24.6781 73.3554 3.42812 46.9777 3.42812ZM46.9777 82.3281C28.8888 82.3281 16.5165 66.6503 16.5165 50.5892C16.5165 34.717 28.7665 18.9781 46.9777 18.9781C65.1888 18.9781 77.4388 34.6503 77.4388 50.3948C77.3721 67.3003 64.3721 82.3281 46.9777 82.3281ZM210.078 82.3281C191.994 82.3281 180.439 66.6503 180.439 50.5892C180.439 34.717 191.867 18.9781 210.078 18.9781C225.155 18.9781 232.817 29.3392 235.328 35.6892H253.105C250.455 22.4114 235.389 3.42812 210.072 3.42812C183.072 3.42812 163.911 25.4559 163.911 50.067C163.911 72.8726 180.872 97.8726 210.078 97.8726C235.822 97.8726 250.394 79.4115 253.411 65.4837H235.072C232.494 71.8337 225.155 82.3281 210.078 82.3281ZM333.489 18.2003H333.178C326.9 8.47812 316.094 3.42812 303.972 3.42812C272.694 3.42812 257.811 28.5615 257.811 50.3948C257.811 72.2226 272.7 97.8726 303.972 97.8726C316.028 97.8726 326.894 92.817 333.178 83.1059H333.489V95.5448H350.133V5.88923H333.489V18.2003ZM303.972 82.3281C284 82.3281 274.328 64.5115 274.328 50.5892C274.328 36.6615 284.061 18.9781 303.972 18.9781C320.617 18.9781 333.994 31.6059 333.994 50.5892C333.994 69.567 320.617 82.3281 303.972 82.3281ZM378.205 47.217C378.205 34.1337 382.605 27.7837 387.939 24.417C391.711 21.9559 397.239 20.8559 400 20.8559V3.49478C395.917 3.49478 384.611 5.30589 377.705 15.9337H377.455V5.88923H361.622V95.6114H378.272C378.205 95.6114 378.205 59.9781 378.205 47.2226V47.217Z"></path></svg>