<svg width="36" height="36" viewBox="0 0 36 36" fill="none" xmlns="http://www.w3.org/2000/svg">
<g clip-path="url(#clip0_4531_5002)">
<rect width="36" height="36" fill="white"/>
<g clip-path="url(#clip1_4531_5002)">
<rect width="36" height="36" fill="white"/>
<rect width="36" height="36" fill="url(#paint0_radial_4531_5002)"/>
<mask id="mask0_4531_5002" style="mask-type:alpha" maskUnits="userSpaceOnUse" x="10" y="8" width="16" height="20">
<rect x="15.4839" y="13.8765" width="0.901411" height="13.4369" fill="#C4C4C4"/>
<rect x="19.6147" y="13.8765" width="0.901411" height="13.1525" fill="#C4C4C4"/>
<rect x="10.0005" y="13.8765" width="6.38499" height="0.853136" fill="#C4C4C4"/>
<rect x="19.6147" y="13.8765" width="6.38499" height="0.853136" fill="#C4C4C4"/>
<rect x="10.2266" y="9.39771" width="9.8404" height="0.853136" fill="#C4C4C4"/>
<rect x="10.0005" y="9.39771" width="0.901411" height="5.3321" fill="#C4C4C4"/>
<rect x="25.0972" y="9.8241" width="0.901411" height="4.90553" fill="#C4C4C4"/>
<ellipse cx="19.6164" cy="9.82428" rx="1.20188" ry="1.13751" fill="#C4C4C4"/>
<ellipse cx="20.0666" cy="26.1762" rx="1.20188" ry="1.13751" fill="#C4C4C4"/>
</mask>
<g mask="url(#mask0_4531_5002)">
<rect x="4.06592" y="8.28271" width="28.6949" height="19.9776" fill="url(#paint1_linear_4531_5002)"/>
<rect x="4.06592" y="8.28271" width="28.6949" height="19.9776" fill="url(#paint2_linear_4531_5002)"/>
</g>
</g>
</g>
<defs>
<radialGradient id="paint0_radial_4531_5002" cx="0" cy="0" r="1" gradientUnits="userSpaceOnUse" gradientTransform="translate(28.9286 7.07143) rotate(108.778) scale(33.9499)">
<stop stop-color="#C801C1"/>
<stop offset="1" stop-color="#8E00C0"/>
</radialGradient>
<linearGradient id="paint1_linear_4531_5002" x1="24.9854" y1="5.19396" x2="15.0899" y2="39.5371" gradientUnits="userSpaceOnUse">
<stop stop-color="white"/>
<stop offset="1" stop-color="white" stop-opacity="0"/>
</linearGradient>
<linearGradient id="paint2_linear_4531_5002" x1="24.9854" y1="5.19396" x2="15.0899" y2="39.5371" gradientUnits="userSpaceOnUse">
<stop stop-color="white"/>
<stop offset="1" stop-color="white" stop-opacity="0"/>
</linearGradient>
<clipPath id="clip0_4531_5002">
<rect width="36" height="36" fill="white"/>
</clipPath>
<clipPath id="clip1_4531_5002">
<rect width="36" height="36" fill="white"/>
</clipPath>
</defs>
</svg>
